<svg width="123" height="106" viewBox="0 0 123 106" fill="none" xmlns="http://www.w3.org/2000/svg">
<path d="M75.2399 4.25009C75.0599 3.27009 75.2899 2.32009 75.8199 1.56009C76.3399 0.800091 77.1499 0.250091 78.1299 0.0700909C79.1099 -0.109909 80.0599 0.120091 80.8199 0.650091C81.5799 1.17009 82.1299 1.98009 82.3099 2.96009L89.9699 44.3601C90.1399 45.3301 89.9099 46.2801 89.3899 47.0301C88.8699 47.7901 88.0599 48.3401 87.0799 48.5201H87.0699C86.0999 48.6901 85.1499 48.4601 84.3999 47.9401C83.6399 47.4201 83.0899 46.6101 82.9099 45.6301L75.2399 4.25009ZM17.3999 27.8501C17.4299 27.8201 17.4699 27.8001 17.5099 27.7801C18.4399 27.2001 19.5199 27.0401 20.5099 27.2501C21.5099 27.4601 22.4299 28.0501 23.0399 28.9601C23.0699 29.0001 23.0899 29.0301 23.1099 29.0701C23.6899 30.0001 23.8499 31.0801 23.6399 32.0701C23.4199 33.0901 22.8199 34.0201 21.8799 34.6401C18.3899 36.9001 15.5999 39.4901 13.4699 42.2601C11.1999 45.2201 9.6799 48.3801 8.8699 51.5701C8.3299 53.6701 8.0899 55.8001 8.1399 57.8801C8.1899 60.0001 8.5399 62.0801 9.1599 64.0701C9.7799 66.0401 10.6799 67.9101 11.8299 69.6201C12.9599 71.3001 14.3499 72.8401 15.9699 74.1801C18.2999 76.1001 21.1099 77.6201 24.3699 78.5801C27.4399 79.4801 30.9099 79.8901 34.7399 79.6801C35.6599 79.6301 36.5399 79.8901 37.2499 80.3801C37.9699 80.8701 38.5299 81.5901 38.8199 82.4401C39.8499 85.2201 41.3599 87.6101 43.2199 89.6001C45.1999 91.7201 47.5799 93.4001 50.1999 94.6201C51.8099 95.3701 53.5099 95.9501 55.2699 96.3601C57.0599 96.7801 58.8999 97.0201 60.7499 97.0901C62.6299 97.1601 64.5199 97.0401 66.3899 96.7501C68.2299 96.4601 70.0599 95.9901 71.8299 95.3401C75.0399 94.1701 78.0499 92.4001 80.6499 90.0401C83.0699 87.8301 85.1399 85.1101 86.6499 81.8501C86.9999 81.1101 87.5399 80.5201 88.1899 80.1201C88.8599 79.7101 89.6399 79.4901 90.4299 79.5101C94.1199 79.5501 97.3699 79.0801 100.2 78.1901C103.2 77.2401 105.72 75.8301 107.76 74.0701C109.32 72.7301 110.62 71.1701 111.65 69.4601C112.73 67.6801 113.51 65.7401 114.02 63.7101C114.53 61.6601 114.76 59.5101 114.71 57.3301C114.66 55.1401 114.32 52.9201 113.71 50.7301C112.78 47.4201 111.22 44.2001 109.03 41.3001C106.97 38.5701 104.35 36.1201 101.19 34.1501C100.23 33.5601 99.6099 32.6301 99.3699 31.6101C99.1299 30.6001 99.2799 29.4901 99.8799 28.5301C100.47 27.5701 101.4 26.9501 102.42 26.7101C103.44 26.4701 104.54 26.6201 105.5 27.2201C109.55 29.7401 112.9 32.8801 115.55 36.4001C118.36 40.1301 120.37 44.2801 121.57 48.5601C122.37 51.4101 122.8 54.3201 122.86 57.2001C122.92 60.0801 122.62 62.9201 121.94 65.6501C121.23 68.4901 120.12 71.2101 118.6 73.7201C117.13 76.1301 115.29 78.3401 113.07 80.2501C110.49 82.4701 107.41 84.2801 103.83 85.5601C100.59 86.7101 96.9299 87.4301 92.8599 87.6001C90.8399 91.2101 88.2799 94.2601 85.3599 96.7601C82.1399 99.5101 78.4899 101.59 74.6199 103C72.3699 103.82 70.0499 104.42 67.6899 104.79C65.3099 105.17 62.8999 105.31 60.5099 105.23C58.0999 105.15 55.7099 104.83 53.3999 104.29C51.1099 103.75 48.8899 102.99 46.7599 102C43.5399 100.5 40.5899 98.4901 38.0499 95.9701C35.7499 93.6901 33.7899 90.9901 32.2999 87.8901C28.1099 87.8401 24.2599 87.1801 20.7999 86.0101C16.9699 84.7201 13.6099 82.8201 10.7699 80.4701C8.5399 78.6301 6.6299 76.5001 5.0599 74.1701C3.4599 71.8001 2.2299 69.2101 1.3699 66.5001C0.5199 63.8101 0.0599004 60.9901 -0.0100996 58.1101C-0.0800996 55.2901 0.2499 52.4101 0.9799 49.5601C2.0499 45.3901 3.9899 41.2801 6.8799 37.4801C9.5699 33.9401 13.0499 30.6701 17.3999 27.8501ZM41.3199 2.99009C41.4899 2.01009 42.0399 1.19009 42.7899 0.660091L42.8399 0.630091C43.5699 0.130091 44.4899 -0.109909 45.4299 0.0400909L45.5199 0.0600909C46.4799 0.240091 47.2799 0.780091 47.8099 1.52009C48.3399 2.26009 48.5799 3.20009 48.4299 4.16009L41.1299 46.3201C40.9599 47.3001 40.4099 48.1201 39.6599 48.6501L39.6099 48.6801C38.8699 49.1901 37.9299 49.4201 36.9699 49.2601C35.9899 49.0901 35.1699 48.5401 34.6399 47.7901L34.6099 47.7401C34.0999 46.9901 33.8699 46.0601 34.0299 45.1001L41.3199 2.99009ZM57.6799 13.3201C57.6599 12.3301 58.0499 11.4201 58.6899 10.7601C59.3299 10.1001 60.2199 9.69009 61.2099 9.67009C62.1999 9.65009 63.1099 10.0401 63.7699 10.6801C64.4299 11.3201 64.8399 12.2101 64.8599 13.2001L65.7699 65.3501C65.7899 66.3401 65.3999 67.2501 64.7599 67.9101C64.1199 68.5701 63.2299 68.9801 62.2399 69.0001C61.2499 69.0201 60.3399 68.6301 59.6799 67.9901C59.0199 67.3501 58.6099 66.4601 58.5899 65.4701L57.6799 13.3201Z" fill="white"/>
</svg>
